<?xml version="1.0" standalone="no"?>
<!DOCTYPE svg PUBLIC "-//W3C//DTD SVG 20010904//EN"
 "http://www.w3.org/TR/2001/REC-SVG-20010904/DTD/svg10.dtd">
<svg version="1.0" xmlns="http://www.w3.org/2000/svg"
 width="200.000000pt" height="200.000000pt" viewBox="0 0 200.000000 200.000000"
 preserveAspectRatio="xMidYMid meet">

<g transform="translate(0.000000,200.000000) scale(0.100000,-0.100000)"
fill="#000000" stroke="none">
<path d="M825 1885 c-44 -8 -105 -23 -135 -34 l-55 -20 100 6 c184 10 379 -24
520 -93 81 -40 196 -124 232 -171 l24 -31 -58 23 c-109 43 -109 43 -74 -6 33
-44 71 -152 71 -198 0 -36 -28 -131 -39 -131 -13 0 -22 29 -16 53 5 17 -1 26
-25 41 -29 17 -30 19 -13 31 16 12 12 16 -40 41 -31 16 -57 31 -57 35 0 3 9
14 20 24 30 27 24 34 -21 24 -23 -6 -44 -8 -46 -5 -2 2 3 19 12 37 l17 32 -40
-7 -41 -6 6 34 c3 18 0 43 -7 56 l-12 22 -18 -30 c-23 -37 -54 -60 -102 -73
-21 -5 -58 -27 -83 -49 -26 -22 -55 -40 -66 -40 -11 0 -33 -7 -49 -15 -27 -14
-30 -13 -43 5 -19 27 -27 15 -27 -36 0 -65 7 -77 32 -52 15 15 31 19 66 17 26
-1 54 1 63 5 8 4 26 3 39 -2 22 -8 20 -11 -32 -40 -31 -18 -64 -32 -75 -32
-10 0 -27 -6 -37 -13 -18 -13 -17 -15 10 -34 l29 -21 34 29 c22 18 56 33 92
40 43 8 60 17 70 35 17 33 49 30 84 -6 23 -24 29 -41 33 -87 3 -48 0 -64 -20
-92 -39 -59 -80 -76 -178 -75 -150 1 -250 47 -316 146 l-32 47 -13 -62 c-11
-57 -13 -59 -20 -32 -12 51 -9 157 5 226 20 92 68 182 135 252 64 68 53 70
-60 10 -91 -49 -169 -120 -228 -208 l-49 -74 -12 30 c-7 16 -16 29 -21 29 -16
0 -51 -135 -56 -216 -9 -127 35 -283 108 -386 l21 -29 -38 6 c-22 4 -47 9 -56
12 -24 6 -23 -2 11 -51 75 -109 215 -205 352 -242 69 -19 255 -25 322 -11 l38
8 -49 44 c-27 24 -62 69 -78 100 l-29 55 -5 -32 -5 -33 -32 31 c-38 37 -49 85
-31 138 18 55 56 80 121 80 93 0 143 -59 155 -183 l7 -66 27 45 27 45 1 -46
c1 -167 -125 -284 -320 -296 -87 -6 -147 8 -188 42 -17 14 -33 25 -36 25 -3 0
-6 -16 -6 -35 0 -19 -5 -35 -11 -35 -30 0 -141 72 -200 130 -68 68 -120 146
-157 240 -26 66 -52 164 -52 200 -1 25 -1 24 -14 -5 -12 -28 -13 -24 -20 65
-10 140 15 301 65 416 27 64 99 171 144 214 l37 35 -18 -31 c-15 -27 -16 -34
-5 -48 12 -14 17 -8 43 47 17 34 34 72 39 85 8 22 8 22 -24 8 -100 -42 -137
-59 -137 -64 0 -2 7 -10 16 -17 15 -10 11 -19 -31 -76 -218 -296 -252 -699
-86 -1016 l38 -72 -34 -3 -35 -3 38 -48 c72 -92 203 -174 318 -199 41 -9 47
-12 31 -19 -11 -4 -38 -8 -60 -9 -57 -1 -28 -14 78 -35 149 -29 356 -19 451
21 18 7 18 4 -4 -26 l-24 -33 30 7 c96 24 220 129 267 226 l26 55 1 -35 1 -35
38 41 c45 48 81 136 81 201 0 44 1 45 18 30 27 -25 32 -21 32 26 0 23 3 59 7
81 6 38 6 38 19 15 25 -46 38 -154 27 -221 -12 -66 -44 -162 -66 -191 -10 -15
-11 -6 -9 50 l3 68 -32 -65 c-61 -122 -200 -225 -384 -287 l-70 -24 57 6 c32
4 99 17 149 31 291 78 477 222 552 429 l18 50 -5 -95 -6 -95 19 35 c29 54 78
208 96 301 80 411 -48 769 -345 968 -91 61 -204 110 -312 136 -91 22 -296 27
-393 10z m185 -410 c-14 -17 -40 -20 -40 -6 0 5 10 12 23 14 12 2 24 5 26 6 2
0 -2 -6 -9 -14z"/>
<path d="M968 103 c7 -3 16 -2 19 1 4 3 -2 6 -13 5 -11 0 -14 -3 -6 -6z"/>
</g>
</svg>
